# xmcd CD database file
#
# Track frame offsets:
#	150
#	16627
#	34852
#	60527
#	79580
#	91875
#	113530
#	127355
#	149712
#	163312
#
# Disc length: 2489 seconds
#
# Revision: 0
# Processed by: cddbd v1.5.1PL0 Copyright (c) Steve Scherf et al.
# Submitted via: CDex 1.51
#
DISCID=8209b70a
DTITLE=Andre van Duin - And're André
DYEAR=1978
DGENRE=Nederlands
TTITLE0=Geweldig
TTITLE1=Dag schatteboutje
TTITLE2=Het dorp
TTITLE3=Zo tussen de mensen
TTITLE4=Jan Klaassen de trompetter
TTITLE5=De winters waren koud
TTITLE6=Als ik tweemaal met mijn fietsbel bel
TTITLE7=De doodgewoonste dingen
TTITLE8=Op de woelige baren
TTITLE9=Oh! Heideroosje!
EXTD=YEAR: 1978
EXTT0=
EXTT1=
EXTT2=
EXTT3=
EXTT4=
EXTT5=
EXTT6=
EXTT7=
EXTT8=
EXTT9=
PLAYORDER=
